{
	"patcher" : 	{
		"fileversion" : 1,
		"appversion" : 		{
			"major" : 7,
			"minor" : 0,
			"revision" : 0,
			"architecture" : "x64",
			"modernui" : 1
		}
,
		"rect" : [ 459.0, 188.0, 722.0, 715.0 ],
		"bgcolor" : [ 0.65098, 0.666667, 0.662745, 1.0 ],
		"bglocked" : 0,
		"openinpresentation" : 1,
		"default_fontsize" : 12.0,
		"default_fontface" : 0,
		"default_fontname" : "Arial",
		"gridonopen" : 1,
		"gridsize" : [ 15.0, 15.0 ],
		"gridsnaponopen" : 1,
		"objectsnaponopen" : 1,
		"statusbarvisible" : 2,
		"toolbarvisible" : 1,
		"lefttoolbarpinned" : 0,
		"toptoolbarpinned" : 0,
		"righttoolbarpinned" : 0,
		"bottomtoolbarpinned" : 0,
		"toolbars_unpinned_last_save" : 0,
		"tallnewobj" : 0,
		"boxanimatetime" : 200,
		"enablehscroll" : 1,
		"enablevscroll" : 1,
		"devicewidth" : 0.0,
		"description" : "",
		"digest" : "",
		"tags" : "",
		"style" : "",
		"subpatcher_template" : "",
		"boxes" : [ 			{
				"box" : 				{
					"id" : "obj-15",
					"maxclass" : "newobj",
					"numinlets" : 2,
					"numoutlets" : 1,
					"outlettype" : [ "float" ],
					"patching_rect" : [ 364.643311, 153.0, 42.0, 22.0 ],
					"style" : "",
					"text" : "* 1.27"
				}

			}
, 			{
				"box" : 				{
					"id" : "obj-12",
					"maxclass" : "newobj",
					"numinlets" : 2,
					"numoutlets" : 1,
					"outlettype" : [ "float" ],
					"patching_rect" : [ 309.75, 153.0, 42.0, 22.0 ],
					"style" : "",
					"text" : "* 1.27"
				}

			}
, 			{
				"box" : 				{
					"id" : "obj-11",
					"maxclass" : "newobj",
					"numinlets" : 5,
					"numoutlets" : 1,
					"outlettype" : [ "" ],
					"patching_rect" : [ 190.0, 256.0, 100.0, 22.0 ],
					"style" : "",
					"text" : "zmap 0. 1. 0 127"
				}

			}
, 			{
				"box" : 				{
					"activebgcolor" : [ 0.0, 0.0, 0.0, 0.0 ],
					"activeslidercolor" : [ 0.360784, 0.360784, 0.360784, 1.0 ],
					"activetricolor" : [ 0.278431, 0.839216, 1.0, 1.0 ],
					"activetricolor2" : [ 0.278431, 0.839216, 1.0, 1.0 ],
					"annotation" : "Minimum target parameter value in percent. When Min > Max - the range will be inverted.",
					"appearance" : 2,
					"bordercolor" : [ 1.0, 1.0, 1.0, 0.0 ],
					"focusbordercolor" : [ 1.0, 1.0, 1.0, 0.0 ],
					"id" : "obj-70",
					"maxclass" : "live.numbox",
					"numinlets" : 1,
					"numoutlets" : 2,
					"outlettype" : [ "", "float" ],
					"parameter_enable" : 1,
					"patching_rect" : [ 364.643311, 118.753357, 54.0, 15.0 ],
					"presentation" : 1,
					"presentation_rect" : [ 123.5, 26.0, 36.0, 15.0 ],
					"prototypename" : "amount",
					"saved_attribute_attributes" : 					{
						"valueof" : 						{
							"parameter_linknames" : 1,
							"parameter_longname" : "TargetMax",
							"parameter_shortname" : "Min",
							"parameter_type" : 0,
							"parameter_mmax" : 100.0,
							"parameter_initial_enable" : 1,
							"parameter_initial" : [ 100 ],
							"parameter_unitstyle" : 5,
							"parameter_speedlim" : 0.0,
							"parameter_annotation_name" : "Minimum"
						}

					}
,
					"textcolor" : [ 1.0, 1.0, 1.0, 1.0 ],
					"tricolor2" : [ 0.556863, 0.556863, 0.556863, 1.0 ],
					"varname" : "TargetMax"
				}

			}
, 			{
				"box" : 				{
					"activebgcolor" : [ 0.0, 0.0, 0.0, 0.0 ],
					"activeslidercolor" : [ 0.360784, 0.360784, 0.360784, 1.0 ],
					"activetricolor" : [ 0.278431, 0.839216, 1.0, 1.0 ],
					"activetricolor2" : [ 0.278431, 0.839216, 1.0, 1.0 ],
					"annotation" : "Minimum target parameter value in percent. When Min > Max - the range will be inverted.",
					"appearance" : 2,
					"bordercolor" : [ 1.0, 1.0, 1.0, 0.0 ],
					"focusbordercolor" : [ 1.0, 1.0, 1.0, 0.0 ],
					"id" : "obj-67",
					"maxclass" : "live.numbox",
					"numinlets" : 1,
					"numoutlets" : 2,
					"outlettype" : [ "", "float" ],
					"parameter_enable" : 1,
					"patching_rect" : [ 309.75, 118.753357, 54.0, 15.0 ],
					"presentation" : 1,
					"presentation_rect" : [ 86.5, 26.0, 36.0, 15.0 ],
					"prototypename" : "amount",
					"saved_attribute_attributes" : 					{
						"valueof" : 						{
							"parameter_linknames" : 1,
							"parameter_longname" : "TargetMin",
							"parameter_shortname" : "Min",
							"parameter_type" : 0,
							"parameter_mmax" : 100.0,
							"parameter_initial_enable" : 1,
							"parameter_initial" : [ 0 ],
							"parameter_unitstyle" : 5,
							"parameter_speedlim" : 0.0,
							"parameter_annotation_name" : "Minimum"
						}

					}
,
					"textcolor" : [ 1.0, 1.0, 1.0, 1.0 ],
					"tricolor2" : [ 0.556863, 0.556863, 0.556863, 1.0 ],
					"varname" : "TargetMin"
				}

			}
, 			{
				"box" : 				{
					"fontname" : "Arial Bold",
					"fontsize" : 10.0,
					"id" : "obj-48",
					"maxclass" : "comment",
					"numinlets" : 1,
					"numoutlets" : 0,
					"patching_rect" : [ 309.75, 98.753357, 108.893311, 18.0 ],
					"presentation" : 1,
					"presentation_rect" : [ 103.5, 3.0, 38.0, 18.0 ],
					"style" : "",
					"text" : "range"
				}

			}
, 			{
				"box" : 				{
					"id" : "obj-2",
					"maxclass" : "newobj",
					"numinlets" : 1,
					"numoutlets" : 4,
					"outlettype" : [ "", "", "", "" ],
					"patching_rect" : [ 402.0, 420.0, 58.0, 22.0 ],
					"restore" : 					{
						"TargetMax" : [ 100.0 ],
						"TargetMin" : [ 0.0 ],
						"live.dialCC" : [ 0.0 ],
						"live.numboxCC" : [ 127.0 ]
					}
,
					"style" : "",
					"text" : "autopattr",
					"varname" : "u402001349"
				}

			}
, 			{
				"box" : 				{
					"fontname" : "Arial",
					"fontsize" : 12.0,
					"hidden" : 1,
					"id" : "obj-49",
					"maxclass" : "newobj",
					"numinlets" : 1,
					"numoutlets" : 1,
					"outlettype" : [ "bang" ],
					"patching_rect" : [ 105.166626, 347.0, 60.0, 22.0 ],
					"style" : "",
					"text" : "loadbang"
				}

			}
, 			{
				"box" : 				{
					"fontname" : "Arial",
					"fontsize" : 10.0,
					"hidden" : 1,
					"id" : "obj-31",
					"maxclass" : "message",
					"numinlets" : 2,
					"numoutlets" : 1,
					"outlettype" : [ "" ],
					"patching_rect" : [ 105.166626, 374.0, 88.0, 20.0 ],
					"style" : "",
					"text" : "port \"from Max 1\""
				}

			}
, 			{
				"box" : 				{
					"id" : "obj-36",
					"maxclass" : "live.dial",
					"numinlets" : 1,
					"numoutlets" : 2,
					"outlettype" : [ "", "float" ],
					"parameter_enable" : 1,
					"patching_rect" : [ 273.0, 358.0, 44.0, 47.0 ],
					"presentation" : 1,
					"presentation_rect" : [ 46.5, 3.0, 44.0, 47.0 ],
					"saved_attribute_attributes" : 					{
						"valueof" : 						{
							"parameter_longname" : "Control Number",
							"parameter_shortname" : "CC",
							"parameter_type" : 0,
							"parameter_unitstyle" : 0
						}

					}
,
					"varname" : "live.dialCC"
				}

			}
, 			{
				"box" : 				{
					"id" : "obj-26",
					"maxclass" : "newobj",
					"numinlets" : 3,
					"numoutlets" : 0,
					"patching_rect" : [ 197.166626, 420.0, 162.0, 22.0 ],
					"style" : "",
					"text" : "ctlout"
				}

			}
, 			{
				"box" : 				{
					"comment" : "",
					"id" : "obj-1",
					"maxclass" : "inlet",
					"numinlets" : 0,
					"numoutlets" : 1,
					"outlettype" : [ "" ],
					"patching_rect" : [ 190.0, 146.0, 30.0, 30.0 ],
					"style" : ""
				}

			}
, 			{
				"box" : 				{
					"fontname" : "Arial Bold",
					"fontsize" : 10.0,
					"id" : "obj-46",
					"maxclass" : "comment",
					"numinlets" : 1,
					"numoutlets" : 0,
					"patching_rect" : [ 243.0, 315.5, 160.0, 18.0 ],
					"presentation" : 1,
					"presentation_rect" : [ 6.0, 3.0, 36.0, 18.0 ],
					"style" : "",
					"text" : "value"
				}

			}
, 			{
				"box" : 				{
					"activebgcolor" : [ 0.360784, 0.360784, 0.360784, 0.0 ],
					"activeslidercolor" : [ 0.0, 0.733333, 0.917647, 1.0 ],
					"activetricolor2" : [ 0.0, 0.733333, 0.917647, 1.0 ],
					"appearance" : 2,
					"bordercolor" : [ 0.0, 0.733333, 0.917647, 0.0 ],
					"focusbordercolor" : [ 0.0, 0.733333, 0.917647, 1.0 ],
					"id" : "obj-50",
					"maxclass" : "live.numbox",
					"numinlets" : 1,
					"numoutlets" : 2,
					"outlettype" : [ "", "float" ],
					"parameter_enable" : 1,
					"patching_rect" : [ 190.0, 315.5, 45.0, 15.0 ],
					"presentation" : 1,
					"presentation_rect" : [ 3.5, 26.0, 41.0, 15.0 ],
					"saved_attribute_attributes" : 					{
						"valueof" : 						{
							"parameter_longname" : "live.numbox[24]",
							"parameter_shortname" : "live.numbox",
							"parameter_type" : 0,
							"parameter_unitstyle" : 0,
							"parameter_invisible" : 2
						}

					}
,
					"textcolor" : [ 1.0, 1.0, 1.0, 1.0 ],
					"varname" : "live.numboxCC"
				}

			}
 ],
		"lines" : [ 			{
				"patchline" : 				{
					"destination" : [ "obj-11", 0 ],
					"disabled" : 0,
					"hidden" : 0,
					"source" : [ "obj-1", 0 ]
				}

			}
, 			{
				"patchline" : 				{
					"destination" : [ "obj-50", 0 ],
					"disabled" : 0,
					"hidden" : 0,
					"source" : [ "obj-11", 0 ]
				}

			}
, 			{
				"patchline" : 				{
					"destination" : [ "obj-11", 3 ],
					"disabled" : 0,
					"hidden" : 0,
					"source" : [ "obj-12", 0 ]
				}

			}
, 			{
				"patchline" : 				{
					"destination" : [ "obj-11", 4 ],
					"disabled" : 0,
					"hidden" : 0,
					"source" : [ "obj-15", 0 ]
				}

			}
, 			{
				"patchline" : 				{
					"destination" : [ "obj-26", 0 ],
					"disabled" : 0,
					"hidden" : 0,
					"midpoints" : [ 114.666626, 407.0, 206.666626, 407.0 ],
					"source" : [ "obj-31", 0 ]
				}

			}
, 			{
				"patchline" : 				{
					"destination" : [ "obj-26", 1 ],
					"disabled" : 0,
					"hidden" : 0,
					"midpoints" : [ 282.5, 416.0, 278.166626, 416.0 ],
					"source" : [ "obj-36", 0 ]
				}

			}
, 			{
				"patchline" : 				{
					"destination" : [ "obj-31", 0 ],
					"disabled" : 0,
					"hidden" : 1,
					"midpoints" : [ 114.666626, 370.0, 114.666626, 370.0 ],
					"source" : [ "obj-49", 0 ]
				}

			}
, 			{
				"patchline" : 				{
					"destination" : [ "obj-26", 0 ],
					"disabled" : 0,
					"hidden" : 0,
					"source" : [ "obj-50", 0 ]
				}

			}
, 			{
				"patchline" : 				{
					"destination" : [ "obj-12", 0 ],
					"disabled" : 0,
					"hidden" : 0,
					"source" : [ "obj-67", 0 ]
				}

			}
, 			{
				"patchline" : 				{
					"destination" : [ "obj-15", 0 ],
					"disabled" : 0,
					"hidden" : 0,
					"source" : [ "obj-70", 0 ]
				}

			}
 ],
		"parameters" : 		{
			"obj-36" : [ "Control Number", "CC", 0 ],
			"obj-67" : [ "TargetMin", "Min", 0 ],
			"obj-50" : [ "live.numbox[24]", "live.numbox", 0 ],
			"obj-70" : [ "TargetMax", "Min", 0 ]
		}
,
		"dependency_cache" : [  ],
		"embedsnapshot" : 0
	}

}
