{
	"patcher" : 	{
		"fileversion" : 1,
		"appversion" : 		{
			"major" : 7,
			"minor" : 0,
			"revision" : 0,
			"architecture" : "x64",
			"modernui" : 1
		}
,
		"rect" : [ 34.0, 80.0, 1203.0, 653.0 ],
		"bglocked" : 0,
		"openinpresentation" : 1,
		"default_fontsize" : 12.0,
		"default_fontface" : 0,
		"default_fontname" : "Arial",
		"gridonopen" : 1,
		"gridsize" : [ 15.0, 15.0 ],
		"gridsnaponopen" : 1,
		"objectsnaponopen" : 1,
		"statusbarvisible" : 2,
		"toolbarvisible" : 1,
		"lefttoolbarpinned" : 0,
		"toptoolbarpinned" : 0,
		"righttoolbarpinned" : 0,
		"bottomtoolbarpinned" : 0,
		"toolbars_unpinned_last_save" : 0,
		"tallnewobj" : 0,
		"boxanimatetime" : 200,
		"enablehscroll" : 1,
		"enablevscroll" : 1,
		"devicewidth" : 0.0,
		"description" : "",
		"digest" : "",
		"tags" : "",
		"style" : "",
		"subpatcher_template" : "",
		"boxes" : [ 			{
				"box" : 				{
					"fontface" : 1,
					"id" : "obj-43",
					"maxclass" : "comment",
					"numinlets" : 1,
					"numoutlets" : 0,
					"patching_rect" : [ 887.5, 410.0, 60.0, 20.0 ],
					"presentation" : 1,
					"presentation_rect" : [ 199.166626, 486.0, 101.0, 20.0 ],
					"style" : "",
					"text" : "Failover"
				}

			}
, 			{
				"box" : 				{
					"id" : "obj-47",
					"maxclass" : "newobj",
					"numinlets" : 1,
					"numoutlets" : 0,
					"patching_rect" : [ 896.5, 518.5, 62.0, 22.0 ],
					"style" : "",
					"text" : "s tcpSend"
				}

			}
, 			{
				"box" : 				{
					"id" : "obj-48",
					"maxclass" : "message",
					"numinlets" : 2,
					"numoutlets" : 1,
					"outlettype" : [ "" ],
					"patching_rect" : [ 964.5, 440.0, 49.0, 22.0 ],
					"presentation" : 1,
					"presentation_rect" : [ 259.166626, 521.0, 49.0, 22.0 ],
					"style" : "",
					"text" : "backup"
				}

			}
, 			{
				"box" : 				{
					"id" : "obj-49",
					"maxclass" : "message",
					"numinlets" : 2,
					"numoutlets" : 1,
					"outlettype" : [ "" ],
					"patching_rect" : [ 896.5, 440.0, 51.0, 22.0 ],
					"presentation" : 1,
					"presentation_rect" : [ 194.666626, 521.0, 52.0, 22.0 ],
					"style" : "",
					"text" : "primary"
				}

			}
, 			{
				"box" : 				{
					"fontface" : 1,
					"id" : "obj-35",
					"maxclass" : "comment",
					"numinlets" : 1,
					"numoutlets" : 0,
					"patching_rect" : [ 140.291687, 181.0, 82.916626, 20.0 ],
					"presentation" : 1,
					"presentation_rect" : [ 192.166626, 191.75, 76.833374, 20.0 ],
					"style" : "",
					"text" : "Live OSC"
				}

			}
, 			{
				"box" : 				{
					"id" : "obj-31",
					"maxclass" : "newobj",
					"numinlets" : 0,
					"numoutlets" : 0,
					"patching_rect" : [ 140.291687, 205.0, 86.0, 22.0 ],
					"presentation" : 1,
					"presentation_rect" : [ 192.166626, 209.75, 86.0, 22.0 ],
					"style" : "",
					"text" : "PNC_LiveOsc"
				}

			}
, 			{
				"box" : 				{
					"fontface" : 1,
					"id" : "obj-2",
					"maxclass" : "comment",
					"numinlets" : 1,
					"numoutlets" : 0,
					"patching_rect" : [ 331.5, 30.0, 61.0, 20.0 ],
					"presentation" : 1,
					"presentation_rect" : [ 48.166626, 107.25, 76.833374, 20.0 ],
					"style" : "",
					"text" : "Moments"
				}

			}
, 			{
				"box" : 				{
					"id" : "obj-1",
					"maxclass" : "newobj",
					"numinlets" : 0,
					"numoutlets" : 0,
					"patching_rect" : [ 331.5, 58.5, 92.0, 22.0 ],
					"presentation" : 1,
					"presentation_rect" : [ 48.166626, 127.25, 100.833374, 22.0 ],
					"style" : "",
					"text" : "PNC_Moments"
				}

			}
, 			{
				"box" : 				{
					"id" : "obj-29",
					"maxclass" : "newobj",
					"numinlets" : 1,
					"numoutlets" : 4,
					"outlettype" : [ "", "", "", "" ],
					"patching_rect" : [ 846.0, 259.0, 58.0, 22.0 ],
					"restore" : 					{
						"live.dial" : [ 1.0 ],
						"live.dial[1]" : [ 1.0 ]
					}
,
					"style" : "",
					"text" : "autopattr",
					"varname" : "u371004032"
				}

			}
, 			{
				"box" : 				{
					"id" : "obj-24",
					"maxclass" : "newobj",
					"numinlets" : 1,
					"numoutlets" : 1,
					"outlettype" : [ "bang" ],
					"patching_rect" : [ 834.5, 130.0, 65.0, 22.0 ],
					"style" : "",
					"text" : "closebang"
				}

			}
, 			{
				"box" : 				{
					"id" : "obj-17",
					"maxclass" : "newobj",
					"numinlets" : 1,
					"numoutlets" : 1,
					"outlettype" : [ "bang" ],
					"patching_rect" : [ 906.0, 130.0, 60.0, 22.0 ],
					"style" : "",
					"text" : "loadbang"
				}

			}
, 			{
				"box" : 				{
					"fontname" : "Arial",
					"fontsize" : 10.0,
					"id" : "obj-42",
					"maxclass" : "message",
					"numinlets" : 2,
					"numoutlets" : 1,
					"outlettype" : [ "" ],
					"patching_rect" : [ 906.0, 175.0, 43.0, 20.0 ],
					"style" : "",
					"text" : "recall 1"
				}

			}
, 			{
				"box" : 				{
					"fontname" : "Arial",
					"fontsize" : 10.0,
					"id" : "obj-44",
					"maxclass" : "message",
					"numinlets" : 2,
					"numoutlets" : 1,
					"outlettype" : [ "" ],
					"patching_rect" : [ 834.5, 175.0, 41.0, 20.0 ],
					"style" : "",
					"text" : "store 1"
				}

			}
, 			{
				"box" : 				{
					"autorestore" : "pncgeneral.json",
					"fontface" : 0,
					"fontname" : "Arial",
					"fontsize" : 10.0,
					"id" : "obj-45",
					"maxclass" : "newobj",
					"numinlets" : 1,
					"numoutlets" : 1,
					"outlettype" : [ "" ],
					"patching_rect" : [ 836.0, 223.0, 184.0, 20.0 ],
					"saved_object_attributes" : 					{
						"client_rect" : [ 4, 44, 358, 172 ],
						"parameter_enable" : 0,
						"storage_rect" : [ 583, 69, 1034, 197 ]
					}
,
					"style" : "",
					"text" : "pattrstorage pncgeneral @savemode 3",
					"varname" : "pncgeneral"
				}

			}
, 			{
				"box" : 				{
					"bgcolor" : [ 0.476074, 0.476933, 0.473741, 1.0 ],
					"bgmode" : 2,
					"border" : 0,
					"clickthrough" : 0,
					"enablehscroll" : 0,
					"enablevscroll" : 0,
					"id" : "obj-26",
					"lockeddragscroll" : 0,
					"maxclass" : "bpatcher",
					"name" : "PNC_MasterVolume.maxpat",
					"numinlets" : 0,
					"numoutlets" : 0,
					"offset" : [ 0.0, 0.0 ],
					"patching_rect" : [ 799.0, 490.5, 45.0, 54.0 ],
					"presentation" : 1,
					"presentation_rect" : [ 36.166626, 490.0, 50.0, 54.0 ],
					"varname" : "PNC_MasterVolume",
					"viewvisibility" : 1
				}

			}
, 			{
				"box" : 				{
					"fontface" : 1,
					"id" : "obj-40",
					"maxclass" : "comment",
					"numinlets" : 1,
					"numoutlets" : 0,
					"patching_rect" : [ 678.75, 414.0, 101.0, 20.0 ],
					"presentation" : 1,
					"presentation_rect" : [ 36.166626, 464.0, 101.0, 20.0 ],
					"style" : "",
					"text" : "Master Volume"
				}

			}
, 			{
				"box" : 				{
					"fontface" : 1,
					"id" : "obj-39",
					"maxclass" : "comment",
					"numinlets" : 1,
					"numoutlets" : 0,
					"patching_rect" : [ 427.75, 264.0, 107.0, 20.0 ],
					"presentation" : 1,
					"presentation_rect" : [ 51.166626, 276.75, 107.0, 20.0 ],
					"style" : "",
					"text" : "TCP Received"
				}

			}
, 			{
				"box" : 				{
					"fontface" : 1,
					"id" : "obj-38",
					"maxclass" : "comment",
					"numinlets" : 1,
					"numoutlets" : 0,
					"patching_rect" : [ 241.75, 264.0, 107.0, 20.0 ],
					"presentation" : 1,
					"presentation_rect" : [ 51.166626, 231.75, 107.0, 20.0 ],
					"style" : "",
					"text" : "UDP received"
				}

			}
, 			{
				"box" : 				{
					"id" : "obj-37",
					"maxclass" : "message",
					"numinlets" : 2,
					"numoutlets" : 1,
					"outlettype" : [ "" ],
					"patching_rect" : [ 427.75, 240.0, 291.0, 22.0 ],
					"presentation" : 1,
					"presentation_rect" : [ 51.166626, 298.75, 267.0, 22.0 ],
					"style" : "",
					"text" : "{\\\"from\\\":\\\"hostname-tbd\\\"\\, \\\"status\\\":\\\"alive\\\"}"
				}

			}
, 			{
				"box" : 				{
					"id" : "obj-36",
					"maxclass" : "message",
					"numinlets" : 2,
					"numoutlets" : 1,
					"outlettype" : [ "" ],
					"patching_rect" : [ 241.75, 240.0, 174.0, 22.0 ],
					"presentation" : 1,
					"presentation_rect" : [ 51.166626, 252.75, 174.0, 22.0 ],
					"style" : "",
					"text" : "/water_recycled 1."
				}

			}
, 			{
				"box" : 				{
					"fontface" : 1,
					"id" : "obj-33",
					"maxclass" : "comment",
					"numinlets" : 1,
					"numoutlets" : 0,
					"patching_rect" : [ 445.0, 30.0, 101.0, 20.0 ],
					"presentation" : 1,
					"presentation_rect" : [ 182.166626, 105.25, 101.0, 20.0 ],
					"style" : "",
					"text" : "Current Moment"
				}

			}
, 			{
				"box" : 				{
					"id" : "obj-32",
					"maxclass" : "newobj",
					"numinlets" : 0,
					"numoutlets" : 1,
					"outlettype" : [ "" ],
					"patching_rect" : [ 36.75, 178.0, 88.0, 22.0 ],
					"style" : "",
					"text" : "r udpReceived"
				}

			}
, 			{
				"box" : 				{
					"id" : "obj-30",
					"maxclass" : "newobj",
					"numinlets" : 1,
					"numoutlets" : 0,
					"patching_rect" : [ 36.75, 245.0, 69.0, 22.0 ],
					"style" : "",
					"text" : "s moments"
				}

			}
, 			{
				"box" : 				{
					"id" : "obj-23",
					"maxclass" : "newobj",
					"numinlets" : 2,
					"numoutlets" : 2,
					"outlettype" : [ "", "" ],
					"patching_rect" : [ 36.75, 210.0, 68.0, 22.0 ],
					"style" : "",
					"text" : "route /start"
				}

			}
, 			{
				"box" : 				{
					"id" : "obj-15",
					"maxclass" : "message",
					"numinlets" : 2,
					"numoutlets" : 1,
					"outlettype" : [ "" ],
					"patching_rect" : [ 445.0, 97.0, 66.0, 22.0 ],
					"presentation" : 1,
					"presentation_rect" : [ 157.166626, 127.25, 151.0, 22.0 ],
					"style" : "",
					"text" : "WAT99",
					"textjustification" : 1
				}

			}
, 			{
				"box" : 				{
					"id" : "obj-85",
					"maxclass" : "newobj",
					"numinlets" : 0,
					"numoutlets" : 1,
					"outlettype" : [ "" ],
					"patching_rect" : [ 445.0, 62.0, 66.0, 22.0 ],
					"style" : "",
					"text" : "r moments"
				}

			}
, 			{
				"box" : 				{
					"id" : "obj-34",
					"maxclass" : "newobj",
					"numinlets" : 1,
					"numoutlets" : 1,
					"outlettype" : [ "bang" ],
					"patching_rect" : [ 437.0, 376.5, 59.0, 22.0 ],
					"style" : "",
					"text" : "loadbang"
				}

			}
, 			{
				"box" : 				{
					"id" : "obj-7",
					"maxclass" : "newobj",
					"numinlets" : 1,
					"numoutlets" : 0,
					"patching_rect" : [ 725.083374, 522.5, 62.0, 22.0 ],
					"style" : "",
					"text" : "s tcpSend"
				}

			}
, 			{
				"box" : 				{
					"id" : "obj-13",
					"maxclass" : "message",
					"numinlets" : 2,
					"numoutlets" : 1,
					"outlettype" : [ "" ],
					"patching_rect" : [ 740.75, 444.0, 49.0, 22.0 ],
					"presentation" : 1,
					"presentation_rect" : [ 91.666626, 522.0, 49.0, 22.0 ],
					"style" : "",
					"text" : "unmute"
				}

			}
, 			{
				"box" : 				{
					"id" : "obj-14",
					"maxclass" : "message",
					"numinlets" : 2,
					"numoutlets" : 1,
					"outlettype" : [ "" ],
					"patching_rect" : [ 687.75, 444.0, 36.0, 22.0 ],
					"presentation" : 1,
					"presentation_rect" : [ 91.666626, 495.0, 36.0, 22.0 ],
					"style" : "",
					"text" : "mute"
				}

			}
, 			{
				"box" : 				{
					"id" : "obj-3",
					"maxclass" : "newobj",
					"numinlets" : 0,
					"numoutlets" : 2,
					"outlettype" : [ "", "" ],
					"patching_rect" : [ 241.75, 202.0, 130.0, 22.0 ],
					"presentation" : 1,
					"presentation_rect" : [ 51.166626, 209.75, 130.0, 22.0 ],
					"style" : "",
					"text" : "PNC_Communications"
				}

			}
, 			{
				"box" : 				{
					"fontface" : 1,
					"id" : "obj-4",
					"maxclass" : "comment",
					"numinlets" : 1,
					"numoutlets" : 0,
					"patching_rect" : [ 241.75, 181.0, 107.0, 20.0 ],
					"presentation" : 1,
					"presentation_rect" : [ 51.166626, 188.75, 107.0, 20.0 ],
					"style" : "",
					"text" : "Communications"
				}

			}
, 			{
				"box" : 				{
					"fontsize" : 12.0,
					"id" : "obj-28",
					"maxclass" : "live.dial",
					"numinlets" : 1,
					"numoutlets" : 2,
					"outlettype" : [ "", "float" ],
					"parameter_enable" : 1,
					"patching_rect" : [ 508.25, 431.5, 52.0, 51.0 ],
					"presentation" : 1,
					"presentation_rect" : [ 390.0, 369.5, 52.0, 51.0 ],
					"saved_attribute_attributes" : 					{
						"valueof" : 						{
							"parameter_longname" : "Water Recycled",
							"parameter_shortname" : "Recyc",
							"parameter_type" : 0,
							"parameter_mmax" : 1.0,
							"parameter_unitstyle" : 1
						}

					}
,
					"varname" : "live.dial[1]"
				}

			}
, 			{
				"box" : 				{
					"fontsize" : 12.0,
					"id" : "obj-27",
					"maxclass" : "live.dial",
					"numinlets" : 1,
					"numoutlets" : 2,
					"outlettype" : [ "", "float" ],
					"parameter_enable" : 1,
					"patching_rect" : [ 382.083374, 431.5, 52.0, 51.0 ],
					"presentation" : 1,
					"presentation_rect" : [ 336.0, 369.5, 52.0, 51.0 ],
					"saved_attribute_attributes" : 					{
						"valueof" : 						{
							"parameter_longname" : "Water Fresh",
							"parameter_shortname" : "Fresh",
							"parameter_type" : 0,
							"parameter_mmax" : 1.0,
							"parameter_unitstyle" : 1
						}

					}
,
					"varname" : "live.dial"
				}

			}
, 			{
				"box" : 				{
					"id" : "obj-12",
					"maxclass" : "newobj",
					"numinlets" : 1,
					"numoutlets" : 1,
					"outlettype" : [ "" ],
					"patching_rect" : [ 508.25, 492.0, 140.0, 22.0 ],
					"style" : "",
					"text" : "prepend /water_recycled"
				}

			}
, 			{
				"box" : 				{
					"id" : "obj-5",
					"maxclass" : "newobj",
					"numinlets" : 1,
					"numoutlets" : 1,
					"outlettype" : [ "" ],
					"patching_rect" : [ 382.083374, 492.0, 122.0, 22.0 ],
					"style" : "",
					"text" : "prepend /water_fresh"
				}

			}
, 			{
				"box" : 				{
					"id" : "obj-18",
					"maxclass" : "newobj",
					"numinlets" : 1,
					"numoutlets" : 0,
					"patching_rect" : [ 80.083374, 562.0, 66.0, 22.0 ],
					"style" : "",
					"text" : "s udpSend"
				}

			}
, 			{
				"box" : 				{
					"fontface" : 1,
					"id" : "obj-19",
					"maxclass" : "comment",
					"numinlets" : 1,
					"numoutlets" : 0,
					"patching_rect" : [ 115.75, 414.0, 116.0, 20.0 ],
					"presentation" : 1,
					"presentation_rect" : [ 28.666626, 358.0, 116.0, 20.0 ],
					"style" : "",
					"text" : "Water Sequence"
				}

			}
, 			{
				"box" : 				{
					"id" : "obj-11",
					"maxclass" : "message",
					"numinlets" : 2,
					"numoutlets" : 1,
					"outlettype" : [ "" ],
					"patching_rect" : [ 278.083374, 446.0, 49.0, 22.0 ],
					"presentation" : 1,
					"presentation_rect" : [ 273.0, 386.0, 49.0, 22.0 ],
					"style" : "",
					"text" : "WAT99"
				}

			}
, 			{
				"box" : 				{
					"id" : "obj-10",
					"maxclass" : "message",
					"numinlets" : 2,
					"numoutlets" : 1,
					"outlettype" : [ "" ],
					"patching_rect" : [ 223.083374, 446.0, 49.0, 22.0 ],
					"presentation" : 1,
					"presentation_rect" : [ 216.0, 386.0, 49.0, 22.0 ],
					"style" : "",
					"text" : "WAT03"
				}

			}
, 			{
				"box" : 				{
					"id" : "obj-6",
					"maxclass" : "message",
					"numinlets" : 2,
					"numoutlets" : 1,
					"outlettype" : [ "" ],
					"patching_rect" : [ 160.083374, 446.0, 49.0, 22.0 ],
					"presentation" : 1,
					"presentation_rect" : [ 155.0, 386.0, 49.0, 22.0 ],
					"style" : "",
					"text" : "WAT02"
				}

			}
, 			{
				"box" : 				{
					"id" : "obj-82",
					"maxclass" : "message",
					"numinlets" : 2,
					"numoutlets" : 1,
					"outlettype" : [ "" ],
					"patching_rect" : [ 95.75, 446.0, 56.0, 22.0 ],
					"presentation" : 1,
					"presentation_rect" : [ 88.166626, 386.0, 56.0, 22.0 ],
					"style" : "",
					"text" : "WAT01a"
				}

			}
, 			{
				"box" : 				{
					"id" : "obj-77",
					"maxclass" : "message",
					"numinlets" : 2,
					"numoutlets" : 1,
					"outlettype" : [ "" ],
					"patching_rect" : [ 33.75, 446.0, 49.0, 22.0 ],
					"presentation" : 1,
					"presentation_rect" : [ 28.666626, 386.0, 49.0, 22.0 ],
					"style" : "",
					"text" : "WAT01"
				}

			}
, 			{
				"box" : 				{
					"id" : "obj-8",
					"maxclass" : "newobj",
					"numinlets" : 1,
					"numoutlets" : 1,
					"outlettype" : [ "" ],
					"patching_rect" : [ 80.083374, 512.0, 85.0, 22.0 ],
					"style" : "",
					"text" : "prepend /start"
				}

			}
, 			{
				"box" : 				{
					"fontface" : 1,
					"id" : "obj-22",
					"maxclass" : "comment",
					"numinlets" : 1,
					"numoutlets" : 0,
					"patching_rect" : [ 48.75, 43.0, 71.0, 20.0 ],
					"presentation" : 1,
					"presentation_rect" : [ 51.166626, 34.5, 71.0, 20.0 ],
					"style" : "",
					"text" : "Heartbeat"
				}

			}
, 			{
				"box" : 				{
					"id" : "obj-21",
					"maxclass" : "newobj",
					"numinlets" : 0,
					"numoutlets" : 0,
					"patching_rect" : [ 964.5, 518.5, 85.0, 22.0 ],
					"presentation" : 1,
					"presentation_rect" : [ 319.5, 521.0, 85.0, 22.0 ],
					"style" : "",
					"text" : "PNC_Failover"
				}

			}
, 			{
				"box" : 				{
					"id" : "obj-9",
					"maxclass" : "button",
					"numinlets" : 1,
					"numoutlets" : 1,
					"outlettype" : [ "bang" ],
					"patching_rect" : [ 48.75, 91.0, 19.0, 19.0 ],
					"presentation" : 1,
					"presentation_rect" : [ 148.166626, 54.0, 19.0, 19.0 ],
					"style" : ""
				}

			}
, 			{
				"box" : 				{
					"id" : "obj-16",
					"maxclass" : "newobj",
					"numinlets" : 0,
					"numoutlets" : 1,
					"outlettype" : [ "" ],
					"patching_rect" : [ 48.75, 65.0, 95.0, 22.0 ],
					"presentation" : 1,
					"presentation_rect" : [ 51.166626, 52.5, 95.0, 22.0 ],
					"style" : "",
					"text" : "PNC_Heartbeat"
				}

			}
, 			{
				"box" : 				{
					"angle" : 270.0,
					"bgcolor" : [ 0.47451, 0.478431, 0.47451, 1.0 ],
					"id" : "obj-46",
					"maxclass" : "panel",
					"mode" : 0,
					"numinlets" : 1,
					"numoutlets" : 0,
					"patching_rect" : [ 352.0, 424.5, 230.0, 58.0 ],
					"presentation" : 1,
					"presentation_rect" : [ 338.583313, 363.0, 103.416687, 63.0 ],
					"proportion" : 0.39,
					"style" : ""
				}

			}
, 			{
				"box" : 				{
					"angle" : 270.0,
					"bgcolor" : [ 0.65098, 0.666667, 0.662745, 1.0 ],
					"id" : "obj-50",
					"maxclass" : "panel",
					"mode" : 0,
					"numinlets" : 1,
					"numoutlets" : 0,
					"patching_rect" : [ 25.5, 356.0, 629.25, 247.0 ],
					"presentation" : 1,
					"presentation_rect" : [ 23.375, 347.75, 440.25, 94.5 ],
					"proportion" : 0.39,
					"style" : ""
				}

			}
, 			{
				"box" : 				{
					"angle" : 270.0,
					"bgcolor" : [ 0.65098, 0.666667, 0.662745, 1.0 ],
					"id" : "obj-51",
					"maxclass" : "panel",
					"mode" : 0,
					"numinlets" : 1,
					"numoutlets" : 0,
					"patching_rect" : [ 671.75, 383.5, 189.25, 216.0 ],
					"presentation" : 1,
					"presentation_rect" : [ 23.375, 458.75, 135.791626, 94.5 ],
					"proportion" : 0.39,
					"style" : ""
				}

			}
, 			{
				"box" : 				{
					"angle" : 270.0,
					"bgcolor" : [ 0.65098, 0.666667, 0.662745, 1.0 ],
					"id" : "obj-52",
					"maxclass" : "panel",
					"mode" : 0,
					"numinlets" : 1,
					"numoutlets" : 0,
					"patching_rect" : [ 882.5, 383.5, 189.25, 216.0 ],
					"presentation" : 1,
					"presentation_rect" : [ 167.666626, 479.0, 257.25, 74.25 ],
					"proportion" : 0.39,
					"style" : ""
				}

			}
, 			{
				"box" : 				{
					"angle" : 270.0,
					"bgcolor" : [ 0.65098, 0.666667, 0.662745, 1.0 ],
					"id" : "obj-53",
					"maxclass" : "panel",
					"mode" : 0,
					"numinlets" : 1,
					"numoutlets" : 0,
					"patching_rect" : [ 25.5, 144.0, 713.25, 185.0 ],
					"presentation" : 1,
					"presentation_rect" : [ 23.375, 28.0, 176.25, 56.5 ],
					"proportion" : 0.39,
					"style" : ""
				}

			}
, 			{
				"box" : 				{
					"angle" : 270.0,
					"bgcolor" : [ 0.65098, 0.666667, 0.662745, 1.0 ],
					"id" : "obj-55",
					"maxclass" : "panel",
					"mode" : 0,
					"numinlets" : 1,
					"numoutlets" : 0,
					"patching_rect" : [ 25.5, 35.0, 258.5, 83.0 ],
					"presentation" : 1,
					"presentation_rect" : [ 23.375, 179.5, 364.625, 155.5 ],
					"proportion" : 0.39,
					"style" : ""
				}

			}
, 			{
				"box" : 				{
					"angle" : 270.0,
					"bgcolor" : [ 0.65098, 0.666667, 0.662745, 1.0 ],
					"id" : "obj-56",
					"maxclass" : "panel",
					"mode" : 0,
					"numinlets" : 1,
					"numoutlets" : 0,
					"patching_rect" : [ 304.333374, 17.0, 277.5, 108.0 ],
					"presentation" : 1,
					"presentation_rect" : [ 23.375, 96.0, 316.625, 76.5 ],
					"proportion" : 0.39,
					"style" : ""
				}

			}
, 			{
				"box" : 				{
					"angle" : 270.0,
					"bgcolor" : [ 0.65098, 0.666667, 0.662745, 1.0 ],
					"id" : "obj-57",
					"maxclass" : "panel",
					"mode" : 0,
					"numinlets" : 1,
					"numoutlets" : 0,
					"patching_rect" : [ 807.375, 121.0, 240.25, 184.0 ],
					"proportion" : 0.39,
					"style" : ""
				}

			}
, 			{
				"box" : 				{
					"angle" : 270.0,
					"bgcolor" : [ 1.0, 1.0, 1.0, 1.0 ],
					"id" : "obj-41",
					"maxclass" : "panel",
					"mode" : 0,
					"numinlets" : 1,
					"numoutlets" : 0,
					"patching_rect" : [ 40.5, 50.0, 258.5, 83.0 ],
					"presentation" : 1,
					"presentation_rect" : [ -0.625, -1.0, 488.625, 702.5 ],
					"proportion" : 0.39,
					"style" : ""
				}

			}
 ],
		"lines" : [ 			{
				"patchline" : 				{
					"destination" : [ "obj-8", 0 ],
					"disabled" : 0,
					"hidden" : 0,
					"midpoints" : [ 232.583374, 498.0, 89.583374, 498.0 ],
					"source" : [ "obj-10", 0 ]
				}

			}
, 			{
				"patchline" : 				{
					"destination" : [ "obj-8", 0 ],
					"disabled" : 0,
					"hidden" : 0,
					"midpoints" : [ 287.583374, 498.0, 89.583374, 498.0 ],
					"source" : [ "obj-11", 0 ]
				}

			}
, 			{
				"patchline" : 				{
					"destination" : [ "obj-18", 0 ],
					"disabled" : 0,
					"hidden" : 0,
					"midpoints" : [ 517.75, 549.0, 89.583374, 549.0 ],
					"source" : [ "obj-12", 0 ]
				}

			}
, 			{
				"patchline" : 				{
					"destination" : [ "obj-7", 0 ],
					"disabled" : 0,
					"hidden" : 0,
					"midpoints" : [ 750.25, 507.0, 734.583374, 507.0 ],
					"source" : [ "obj-13", 0 ]
				}

			}
, 			{
				"patchline" : 				{
					"destination" : [ "obj-7", 0 ],
					"disabled" : 0,
					"hidden" : 0,
					"midpoints" : [ 697.25, 507.0, 734.583374, 507.0 ],
					"source" : [ "obj-14", 0 ]
				}

			}
, 			{
				"patchline" : 				{
					"destination" : [ "obj-9", 0 ],
					"disabled" : 0,
					"hidden" : 0,
					"midpoints" : [ 58.25, 88.0, 58.25, 88.0 ],
					"source" : [ "obj-16", 0 ]
				}

			}
, 			{
				"patchline" : 				{
					"destination" : [ "obj-42", 0 ],
					"disabled" : 0,
					"hidden" : 0,
					"source" : [ "obj-17", 0 ]
				}

			}
, 			{
				"patchline" : 				{
					"destination" : [ "obj-30", 0 ],
					"disabled" : 0,
					"hidden" : 0,
					"midpoints" : [ 46.25, 241.0, 46.25, 241.0 ],
					"source" : [ "obj-23", 0 ]
				}

			}
, 			{
				"patchline" : 				{
					"destination" : [ "obj-44", 0 ],
					"disabled" : 0,
					"hidden" : 0,
					"source" : [ "obj-24", 0 ]
				}

			}
, 			{
				"patchline" : 				{
					"destination" : [ "obj-5", 0 ],
					"disabled" : 0,
					"hidden" : 0,
					"midpoints" : [ 391.583374, 483.0, 391.583374, 483.0 ],
					"source" : [ "obj-27", 0 ]
				}

			}
, 			{
				"patchline" : 				{
					"destination" : [ "obj-12", 0 ],
					"disabled" : 0,
					"hidden" : 0,
					"midpoints" : [ 517.75, 483.0, 517.75, 483.0 ],
					"source" : [ "obj-28", 0 ]
				}

			}
, 			{
				"patchline" : 				{
					"destination" : [ "obj-36", 1 ],
					"disabled" : 0,
					"hidden" : 0,
					"midpoints" : [ 251.25, 225.0, 406.25, 225.0 ],
					"source" : [ "obj-3", 0 ]
				}

			}
, 			{
				"patchline" : 				{
					"destination" : [ "obj-37", 1 ],
					"disabled" : 0,
					"hidden" : 0,
					"midpoints" : [ 362.25, 225.0, 709.25, 225.0 ],
					"source" : [ "obj-3", 1 ]
				}

			}
, 			{
				"patchline" : 				{
					"destination" : [ "obj-23", 0 ],
					"disabled" : 0,
					"hidden" : 0,
					"midpoints" : [ 46.25, 202.0, 46.25, 202.0 ],
					"source" : [ "obj-32", 0 ]
				}

			}
, 			{
				"patchline" : 				{
					"destination" : [ "obj-27", 0 ],
					"disabled" : 0,
					"hidden" : 0,
					"midpoints" : [ 446.5, 417.0, 391.583374, 417.0 ],
					"source" : [ "obj-34", 0 ]
				}

			}
, 			{
				"patchline" : 				{
					"destination" : [ "obj-27", 0 ],
					"disabled" : 0,
					"hidden" : 0,
					"midpoints" : [ 446.5, 417.0, 391.583374, 417.0 ],
					"source" : [ "obj-34", 0 ]
				}

			}
, 			{
				"patchline" : 				{
					"destination" : [ "obj-28", 0 ],
					"disabled" : 0,
					"hidden" : 0,
					"midpoints" : [ 446.5, 417.0, 517.75, 417.0 ],
					"source" : [ "obj-34", 0 ]
				}

			}
, 			{
				"patchline" : 				{
					"destination" : [ "obj-28", 0 ],
					"disabled" : 0,
					"hidden" : 0,
					"midpoints" : [ 446.5, 417.0, 517.75, 417.0 ],
					"source" : [ "obj-34", 0 ]
				}

			}
, 			{
				"patchline" : 				{
					"destination" : [ "obj-45", 0 ],
					"disabled" : 0,
					"hidden" : 0,
					"source" : [ "obj-42", 0 ]
				}

			}
, 			{
				"patchline" : 				{
					"destination" : [ "obj-45", 0 ],
					"disabled" : 0,
					"hidden" : 0,
					"source" : [ "obj-44", 0 ]
				}

			}
, 			{
				"patchline" : 				{
					"destination" : [ "obj-47", 0 ],
					"disabled" : 0,
					"hidden" : 0,
					"midpoints" : [ 974.0, 503.0, 906.0, 503.0 ],
					"source" : [ "obj-48", 0 ]
				}

			}
, 			{
				"patchline" : 				{
					"destination" : [ "obj-47", 0 ],
					"disabled" : 0,
					"hidden" : 0,
					"midpoints" : [ 906.0, 503.0, 906.0, 503.0 ],
					"source" : [ "obj-49", 0 ]
				}

			}
, 			{
				"patchline" : 				{
					"destination" : [ "obj-18", 0 ],
					"disabled" : 0,
					"hidden" : 0,
					"midpoints" : [ 391.583374, 549.0, 89.583374, 549.0 ],
					"source" : [ "obj-5", 0 ]
				}

			}
, 			{
				"patchline" : 				{
					"destination" : [ "obj-8", 0 ],
					"disabled" : 0,
					"hidden" : 0,
					"midpoints" : [ 169.583374, 498.0, 89.583374, 498.0 ],
					"source" : [ "obj-6", 0 ]
				}

			}
, 			{
				"patchline" : 				{
					"destination" : [ "obj-8", 0 ],
					"disabled" : 0,
					"hidden" : 0,
					"midpoints" : [ 43.25, 498.0, 89.583374, 498.0 ],
					"source" : [ "obj-77", 0 ]
				}

			}
, 			{
				"patchline" : 				{
					"destination" : [ "obj-18", 0 ],
					"disabled" : 0,
					"hidden" : 0,
					"midpoints" : [ 89.583374, 537.0, 89.583374, 537.0 ],
					"source" : [ "obj-8", 0 ]
				}

			}
, 			{
				"patchline" : 				{
					"destination" : [ "obj-8", 0 ],
					"disabled" : 0,
					"hidden" : 0,
					"midpoints" : [ 105.25, 498.0, 89.583374, 498.0 ],
					"source" : [ "obj-82", 0 ]
				}

			}
, 			{
				"patchline" : 				{
					"destination" : [ "obj-15", 1 ],
					"disabled" : 0,
					"hidden" : 0,
					"midpoints" : [ 454.5, 93.0, 501.5, 93.0 ],
					"source" : [ "obj-85", 0 ]
				}

			}
 ],
		"parameters" : 		{
			"obj-28" : [ "Water Recycled", "Recyc", 0 ],
			"obj-27" : [ "Water Fresh", "Fresh", 0 ],
			"obj-26::obj-8" : [ "live.dial", "Volume", 0 ]
		}
,
		"dependency_cache" : [ 			{
				"name" : "PNC_Heartbeat.maxpat",
				"bootpath" : "~/Google Drive/Freelancing/2015/Bruce Odland/PNC/software/Max",
				"patcherrelativepath" : ".",
				"type" : "JSON",
				"implicit" : 1
			}
, 			{
				"name" : "PNC_Failover.maxpat",
				"bootpath" : "~/Google Drive/Freelancing/2015/Bruce Odland/PNC/software/Max",
				"patcherrelativepath" : ".",
				"type" : "JSON",
				"implicit" : 1
			}
, 			{
				"name" : "PNC_Communications.maxpat",
				"bootpath" : "~/Google Drive/Freelancing/2015/Bruce Odland/PNC/software/Max",
				"patcherrelativepath" : ".",
				"type" : "JSON",
				"implicit" : 1
			}
, 			{
				"name" : "PNC_MasterVolume.maxpat",
				"bootpath" : "~/Google Drive/Freelancing/2015/Bruce Odland/PNC/software/Max",
				"patcherrelativepath" : ".",
				"type" : "JSON",
				"implicit" : 1
			}
, 			{
				"name" : "pncgeneral.json",
				"bootpath" : "~/Google Drive/Freelancing/2015/Bruce Odland/PNC/software/Max",
				"patcherrelativepath" : ".",
				"type" : "JSON",
				"implicit" : 1
			}
, 			{
				"name" : "PNC_Moments.maxpat",
				"bootpath" : "~/Google Drive/Freelancing/2015/Bruce Odland/PNC/software/Max",
				"patcherrelativepath" : ".",
				"type" : "JSON",
				"implicit" : 1
			}
, 			{
				"name" : "PNC_LiveOsc.maxpat",
				"bootpath" : "~/Google Drive/Freelancing/2015/Bruce Odland/PNC/software/Max",
				"patcherrelativepath" : ".",
				"type" : "JSON",
				"implicit" : 1
			}
 ],
		"embedsnapshot" : 0
	}

}
